<?xml version="1.0" encoding="UTF-8"?>
<svg width="86px" height="31px" viewBox="0 0 86 31" version="1.1" xmlns="http://www.w3.org/2000/svg" xmlns:xlink="http://www.w3.org/1999/xlink">
    <!-- Generator: sketchtool 50.2 (55047) - http://www.bohemiancoding.com/sketch -->
    <title>0476D103-5B31-40DE-8A96-22D15F243EF3</title>
    <desc>Created with sketchtool.</desc>
    <defs></defs>
    <g id="Page-1" stroke="none" stroke-width="1" fill="none" fill-rule="evenodd">
        <g id="Dash---Desktop" transform="translate(-184.000000, -32.000000)" fill="#00D1C1">
            <g id="Group-16" transform="translate(184.000000, 32.000000)">
                <path d="M48.5262167,11.2766975 L51.1638798,11.2766975 L51.1638798,12.5675266 L51.1638798,13.333254 C52.5138478,10.600314 56.9747529,9.98806094 57.9743682,13.3118773 L58.017147,13.3118773 C58.9371613,11.4816954 61.1887325,10.6014103 63.1061961,11.1950272 C64.8709557,11.7415056 65.3891745,13.5667543 65.3891745,15.2593574 L65.3891745,22.4375728 L62.6432107,22.4375728 L62.6432107,15.7850071 C62.6432107,14.6218906 62.3443008,13.4658998 60.9640086,13.5579844 C59.6129576,13.6478765 58.7584652,14.8499097 58.4709269,16.0914077 C58.3631677,16.5288097 58.3415075,17.0100614 58.3415075,17.5357111 L58.3415075,22.4375728 L55.5955437,22.4375728 L55.5955437,15.7850071 C55.5955437,14.5517309 55.2435665,13.386422 53.7836733,13.5722356 C52.4878557,13.7372205 51.6929287,14.91404 51.4015998,16.1133326 C51.2932991,16.5288097 51.271639,17.0325345 51.271639,17.5357111 L51.271639,22.4375728 L48.5262167,22.4375728 L48.5262167,11.2766975" id="Fill-1"></path>
                <path d="M85.1372624,20.0740676 C84.4241024,20.0740676 84.0131013,19.767667 84.0131013,18.5420645 L84.0131013,6.89993739 L81.2887977,9.66083166 L81.2887977,18.9575415 C81.2887977,22.1530971 83.1699805,22.5466493 84.6834825,22.5466493 C85.1372624,22.5466493 85.547722,22.4814227 85.547722,22.4814227 L85.547722,20.0521427 C85.547722,20.0521427 85.3538638,20.0740676 85.1372624,20.0740676" id="Fill-2"></path>
                <path d="M78.0679354,13.2197926 C77.1051423,11.6351698 75.3517542,10.8453249 73.5388008,11.0431972 C72.370778,11.1709098 71.1475217,11.7864517 70.5491605,12.8525504 L70.5491605,12.0868229 L70.5491605,11.2766975 L68.0414582,11.2766975 L68.0414582,27.7154467 L70.7868805,24.9293388 L70.7868805,22.1311722 L70.7868805,21.1681206 C71.7085193,22.5263687 73.5339273,22.9144396 75.0447218,22.5822772 C78.9928232,21.7151471 79.9707783,16.351766 78.0679354,13.2197926 L78.0679354,13.2197926 Z M73.4462037,20.3579951 C71.7615866,20.3579951 70.8166632,18.794201 70.7116115,17.2457542 C70.6238879,15.9516364 70.9693671,14.4174408 72.1682557,13.7339318 C73.1575824,13.1693653 74.4691037,13.3272247 75.2699872,14.1499569 C77.0212093,15.9488958 76.3876503,20.3579951 73.4462037,20.3579951 L73.4462037,20.3579951 Z" id="Fill-3"></path>
                <polygon id="Fill-4" points="43.1323012 11.3786483 45.8777235 11.3786483 45.8777235 22.4375728 43.1323012 22.4375728"></polygon>
                <path d="M40.6787492,17.2084819 C40.2542106,15.2615499 38.4336761,14.3330299 36.7718021,13.6264997 C35.6752577,13.1600473 33.495165,12.578489 33.5574379,11.0283979 C33.6191693,9.49255798 35.3985495,9.09571711 36.6104341,9.30729249 C37.2943529,9.42678325 37.9723152,9.70577772 38.5728425,10.0878193 L40.3993335,8.23900126 C38.7564121,6.64177158 35.884278,6.23506451 33.8070709,6.99311826 C31.5657883,7.81036927 30.0187131,10.3547551 31.0551506,12.7045573 C31.8181289,14.4338845 33.7632092,15.1623396 35.3595612,15.865033 C36.585525,16.4049339 38.74125,17.3553788 37.7692514,19.1066309 C37.076127,20.3552545 35.3005374,20.2089058 34.1682537,19.8115168 C33.5281967,19.5867864 32.9060093,19.245306 32.3617983,18.8188665 L30.5266433,20.6764545 C32.1273274,22.3142452 34.7671565,23.0059761 36.9564548,22.5866622 C39.4462875,22.1097954 41.2446203,19.8049393 40.6787492,17.2084819" id="Fill-5"></path>
                <rect id="Rectangle-400" opacity="0" x="0" y="0" width="23.8090275" height="30.2606382"></rect>
                <path d="M20.6496398,7.65823039 L23.6456459,4.63435447 L22.9946488,3.97707053 C17.740876,-1.32557462 9.19227497,-1.32580573 3.93850213,3.97707053 C-1.09636351,9.05877213 -1.30267668,17.1923143 3.31246417,22.5284707 L0.316458076,25.5523466 L0.967684103,26.2093995 C6.22145694,31.5120446 14.769829,31.5122757 20.0236018,26.2093995 C25.0584675,21.127929 25.2647806,12.9943869 20.6496398,7.65823039 L20.6496398,7.65823039 Z M5.2407252,5.2914073 C9.55704398,0.934936721 16.450102,0.724624348 21.0153247,4.66000796 L19.3068868,6.3843383 C15.6736226,3.37710248 10.3019238,3.58487262 6.90932016,7.00880427 C3.51694548,10.432967 3.31086129,15.8546351 6.29060964,19.5216971 L4.61514521,21.2127473 C0.716032414,16.6050574 0.924635406,9.64787789 5.2407252,5.2914073 L5.2407252,5.2914073 Z M18.7213787,24.8950627 C14.40506,29.2515333 7.51200191,29.4618457 2.94677923,25.526462 L4.65521713,23.8021317 C8.28848133,26.8095986 13.6601801,26.6018285 17.0527838,23.1778968 C20.4451585,19.7537341 20.6512426,14.332066 17.6714943,10.6647729 L19.3467298,8.97395384 C23.2458425,13.5816437 23.0376975,20.5385921 18.7213787,24.8950627 L18.7213787,24.8950627 Z" id="mark"></path>
            </g>
        </g>
    </g>
</svg>